<svg width="69" height="72" viewBox="0 0 69 72" fill="none" xmlns="http://www.w3.org/2000/svg">
<path d="M69 21V24H0V21C0 12.717 6.43713 6 14.375 6H17.25V3C17.25 1.344 18.538 0 20.125 0C21.712 0 23 1.344 23 3V6H46V3C46 1.344 47.288 0 48.875 0C50.462 0 51.75 1.344 51.75 3V6H54.625C62.5629 6 69 12.717 69 21ZM69 51C69 62.58 59.9696 72 48.875 72C37.7804 72 28.75 62.58 28.75 51C28.75 39.42 37.7804 30 48.875 30C59.9696 30 69 39.42 69 51ZM54.625 52.758L51.75 49.758V45C51.75 43.344 50.462 42 48.875 42C47.288 42 46 43.344 46 45V51C46 51.795 46.3019 52.56 46.8424 53.121L50.5597 57C51.681 58.17 53.5037 58.17 54.625 57C55.7463 55.83 55.7463 53.928 54.625 52.758ZM23 51C23 42.513 26.7605 34.95 32.6284 30H0V57C0 65.283 6.43713 72 14.375 72H32.6284C26.7605 67.05 23 59.487 23 51Z" fill="#262523"/>
</svg>
