<svg width="30" height="30" viewBox="0 0 30 30" fill="none" xmlns="http://www.w3.org/2000/svg">
<path d="M4.6125 8.75H0V6.25H4.3125L4.6125 8.75ZM0 16.25V18.75H5.7875L5.4875 16.25H0ZM4.9 11.25H0V13.75H5.2L4.9 11.25ZM26.9875 18.75H10.8125L10.975 20.15C11.05 20.775 11.5875 21.25 12.2125 21.25H26.2375V23.75H12.225C10.325 23.75 8.725 22.325 8.5 20.4375L6.5125 3.6C6.4375 2.975 5.9 2.5 5.275 2.5H2.5V0H5.275C7.175 0 8.775 1.425 9 3.3125L9.05 3.75H29.9875L26.9875 18.75ZM11.25 25C9.875 25 8.75 26.125 8.75 27.5C8.75 28.875 9.875 30 11.25 30C12.625 30 13.75 28.875 13.75 27.5C13.75 26.125 12.625 25 11.25 25ZM22.5 25C21.125 25 20 26.125 20 27.5C20 28.875 21.125 30 22.5 30C23.875 30 25 28.875 25 27.5C25 26.125 23.875 25 22.5 25Z" fill="#FFC100"/>
</svg>
