<svg width="30" height="28" viewBox="0 0 30 28" fill="none" xmlns="http://www.w3.org/2000/svg">
<path d="M3.36205 17.2299H0.0386581V16.0813C0.02037 14.4707 0.468964 12.8865 1.33523 11.5023C2.20149 10.1182 3.45196 8.98768 4.94945 8.23476C6.42466 7.54316 8.02234 7.11858 9.66091 6.98272C8.94493 7.82507 8.22693 8.72026 7.50693 9.66829C5.88524 12.0631 4.49781 14.5943 3.36205 17.2299ZM18.864 20.4611C16.3455 22.0051 13.6834 23.3262 10.9113 24.4079V27.5679H12.1193C13.8132 27.5853 15.4794 27.1588 16.9351 26.3351C18.3908 25.5114 19.5798 24.3224 20.3716 22.8986C21.099 21.4959 21.5455 19.9768 21.6884 18.4188C20.8065 19.0965 19.865 19.7773 18.864 20.4611ZM29.0323 3.43565C28.8716 8.43578 25.0855 13.3946 17.4566 18.598C15.3805 19.8776 13.1903 20.9815 10.9113 21.897V21.2503C10.9059 20.1856 10.4587 19.166 9.66687 18.4131C8.87509 17.6603 7.80276 17.2351 6.68302 17.2299H6.00288C6.9668 15.0629 8.12942 12.9808 9.47728 11.0076C14.9365 3.76532 20.1433 0.165407 25.3936 0C28.0102 0 29.0323 1.01657 29.0323 3.43565ZM21.7839 9.76363C21.7839 9.00202 21.4657 8.2716 20.8993 7.73306C20.3329 7.19452 19.5647 6.89198 18.7637 6.89198C17.9627 6.89198 17.1945 7.19452 16.6281 7.73306C16.0617 8.2716 15.7435 9.00202 15.7435 9.76363C15.7435 10.5252 16.0617 11.2557 16.6281 11.7942C17.1945 12.3327 17.9627 12.6353 18.7637 12.6353C19.5647 12.6353 20.3329 12.3327 20.8993 11.7942C21.4657 11.2557 21.7839 10.5252 21.7839 9.76363ZM1.69854 27.3209C3.05882 27.0912 6.33873 26.4503 7.43444 25.4096C7.77101 25.0895 8.03799 24.7096 8.22014 24.2915C8.40229 23.8734 8.49604 23.4252 8.49604 22.9727C8.49604 22.5201 8.40229 22.072 8.22014 21.6538C8.03799 21.2357 7.77101 20.8558 7.43444 20.5358C7.09788 20.2158 6.69831 19.9619 6.25857 19.7887C5.81882 19.6155 5.34751 19.5264 4.87153 19.5264C3.91025 19.5264 2.98834 19.8895 2.30862 20.5358C1.21411 21.5776 0.538798 24.6962 0.298392 25.9896L0 27.6047L1.69854 27.3209Z" fill="#FFC100"/>
</svg>
