<svg width="37" height="43" viewBox="0 0 37 43" fill="none" xmlns="http://www.w3.org/2000/svg">
<path d="M18.5 0C13.5955 0.00519506 8.89334 1.88322 5.42514 5.22208C1.95694 8.56094 0.00588718 13.088 0 17.8101C0 22.3964 3.68851 29.574 10.9636 39.1429C11.8297 40.2853 12.9636 41.2146 14.2732 41.8553C15.5828 42.496 17.031 42.8299 18.5 42.8299C19.969 42.8299 21.4172 42.496 22.7268 41.8553C24.0364 41.2146 25.1703 40.2853 26.0364 39.1429C33.3115 29.574 37 22.3964 37 17.8101C36.9941 13.088 35.0431 8.56094 31.5749 5.22208C28.1067 1.88322 23.4045 0.00519506 18.5 0ZM18.5 24.9091C17.0336 24.9091 15.6002 24.4905 14.381 23.7061C13.1617 22.9217 12.2114 21.8069 11.6503 20.5025C11.0891 19.1982 10.9423 17.7629 11.2284 16.3782C11.5144 14.9935 12.2206 13.7216 13.2574 12.7233C14.2943 11.725 15.6154 11.0451 17.0536 10.7697C18.4918 10.4942 19.9825 10.6356 21.3372 11.1759C22.692 11.7162 23.8499 12.6311 24.6646 13.805C25.4793 14.9789 25.9141 16.359 25.9141 17.7708C25.9141 19.664 25.133 21.4797 23.7425 22.8184C22.3521 24.1571 20.4663 24.9091 18.5 24.9091Z" fill="#E5BD0F"/>
</svg>
