<svg width="29" height="28" viewBox="0 0 29 28" fill="none" xmlns="http://www.w3.org/2000/svg">
<path d="M22.774 0.25H5.99315C2.68373 0.25 0 3.04875 0 6.5V16.5C0 19.9513 2.68373 22.75 5.99315 22.75H13.1849V25.25H8.39041C7.72757 25.25 7.19178 25.81 7.19178 26.5C7.19178 27.19 7.72757 27.75 8.39041 27.75H20.3767C21.0396 27.75 21.5753 27.19 21.5753 26.5C21.5753 25.81 21.0396 25.25 20.3767 25.25H15.5822V22.75H22.774C26.0834 22.75 28.7671 19.9513 28.7671 16.5V6.5C28.7671 3.04875 26.0834 0.25 22.774 0.25ZM8.15308 18.1988C5.8649 17.6375 4.07295 15.6263 3.68339 13.2088C3.12123 9.72 5.3339 6.6475 8.39041 6V11.6063C8.39041 12.2688 8.64332 12.905 9.09281 13.3738L12.8913 17.335C11.5812 18.24 9.91507 18.63 8.15308 18.1988ZM14.5861 15.5675L11.1401 11.9738C10.9147 11.7388 10.7889 11.4213 10.7889 11.09V6.00125C13.5241 6.58 15.5834 9.10125 15.5834 12.125C15.5834 13.3988 15.2142 14.58 14.5861 15.5675ZM23.9738 17.75H20.3779C19.7163 17.75 19.1793 17.19 19.1793 16.5C19.1793 15.81 19.7163 15.25 20.3779 15.25H23.9738C24.6354 15.25 25.1724 15.81 25.1724 16.5C25.1724 17.19 24.6354 17.75 23.9738 17.75ZM23.9738 12.75H20.3779C19.7163 12.75 19.1793 12.19 19.1793 11.5C19.1793 10.81 19.7163 10.25 20.3779 10.25H23.9738C24.6354 10.25 25.1724 10.81 25.1724 11.5C25.1724 12.19 24.6354 12.75 23.9738 12.75ZM23.9738 7.75H20.3779C19.7163 7.75 19.1793 7.19 19.1793 6.5C19.1793 5.81 19.7163 5.25 20.3779 5.25H23.9738C24.6354 5.25 25.1724 5.81 25.1724 6.5C25.1724 7.19 24.6354 7.75 23.9738 7.75Z" fill="#FFC100"/>
</svg>
