<svg width="41" height="42" viewBox="0 0 41 42" fill="none" xmlns="http://www.w3.org/2000/svg">
<g clip-path="url(#clip0_52_154)">
<path d="M20.5 3.78164C25.9773 3.78164 26.626 3.80625 28.7801 3.90469C30.782 3.99492 31.8631 4.33945 32.5838 4.62656C33.5367 5.00391 34.2254 5.46328 34.9381 6.19336C35.6588 6.93164 36.0992 7.62891 36.4676 8.60508C36.7479 9.34336 37.0842 10.459 37.1723 12.5016C37.2684 14.7164 37.2924 15.3809 37.2924 20.9836C37.2924 26.5945 37.2684 27.259 37.1723 29.4656C37.0842 31.5164 36.7479 32.6238 36.4676 33.3621C36.0992 34.3383 35.6508 35.0438 34.9381 35.7738C34.2174 36.5121 33.5367 36.9633 32.5838 37.3406C31.8631 37.6277 30.774 37.9723 28.7801 38.0625C26.618 38.1609 25.9693 38.1855 20.5 38.1855C15.0227 38.1855 14.374 38.1609 12.2199 38.0625C10.218 37.9723 9.13691 37.6277 8.41621 37.3406C7.46328 36.9633 6.77461 36.5039 6.06191 35.7738C5.34121 35.0355 4.90078 34.3383 4.53242 33.3621C4.25215 32.6238 3.91582 31.5082 3.82773 29.4656C3.73164 27.2508 3.70762 26.5863 3.70762 20.9836C3.70762 15.3727 3.73164 14.7082 3.82773 12.5016C3.91582 10.4508 4.25215 9.34336 4.53242 8.60508C4.90078 7.62891 5.34922 6.92344 6.06191 6.19336C6.78262 5.45508 7.46328 5.00391 8.41621 4.62656C9.13691 4.33945 10.226 3.99492 12.2199 3.90469C14.374 3.80625 15.0227 3.78164 20.5 3.78164ZM20.5 0C14.9346 0 14.2379 0.0246094 12.0518 0.123047C9.87363 0.221484 8.37617 0.582422 7.07891 1.09922C5.72559 1.64062 4.58047 2.3543 3.44336 3.52734C2.29824 4.69219 1.60156 5.86524 1.07305 7.24336C0.568555 8.58047 0.216211 10.1062 0.120117 12.3375C0.0240234 14.5852 0 15.2988 0 21C0 26.7012 0.0240234 27.4148 0.120117 29.6543C0.216211 31.8855 0.568555 33.4195 1.07305 34.7484C1.60156 36.1348 2.29824 37.3078 3.44336 38.4727C4.58047 39.6375 5.72559 40.3594 7.0709 40.8926C8.37617 41.4094 9.86563 41.7703 12.0438 41.8687C14.2299 41.9672 14.9266 41.9918 20.492 41.9918C26.0574 41.9918 26.7541 41.9672 28.9402 41.8687C31.1184 41.7703 32.6158 41.4094 33.9131 40.8926C35.2584 40.3594 36.4035 39.6375 37.5406 38.4727C38.6777 37.3078 39.3824 36.1348 39.9029 34.7566C40.4074 33.4195 40.7598 31.8938 40.8559 29.6625C40.952 27.423 40.976 26.7094 40.976 21.0082C40.976 15.307 40.952 14.5934 40.8559 12.3539C40.7598 10.1227 40.4074 8.58867 39.9029 7.25977C39.3984 5.86523 38.7018 4.69219 37.5566 3.52734C36.4195 2.3625 35.2744 1.64062 33.9291 1.10742C32.6238 0.590625 31.1344 0.229688 28.9563 0.13125C26.7621 0.0246094 26.0654 0 20.5 0Z" fill="#FFFAF3"/>
<path d="M20.5 10.2129C14.6863 10.2129 9.96973 15.0445 9.96973 21C9.96973 26.9555 14.6863 31.7871 20.5 31.7871C26.3137 31.7871 31.0303 26.9555 31.0303 21C31.0303 15.0445 26.3137 10.2129 20.5 10.2129ZM20.5 27.9973C16.7283 27.9973 13.6693 24.8637 13.6693 21C13.6693 17.1363 16.7283 14.0027 20.5 14.0027C24.2717 14.0027 27.3307 17.1363 27.3307 21C27.3307 24.8637 24.2717 27.9973 20.5 27.9973Z" fill="#FFFAF3"/>
<path d="M33.9051 9.78631C33.9051 11.1808 32.8 12.3047 31.4467 12.3047C30.0854 12.3047 28.9883 11.1726 28.9883 9.78631C28.9883 8.39177 30.0934 7.26794 31.4467 7.26794C32.8 7.26794 33.9051 8.39998 33.9051 9.78631Z" fill="#FFFAF3"/>
</g>
<defs>
<clipPath id="clip0_52_154">
<rect width="41" height="42" fill="white"/>
</clipPath>
</defs>
</svg>
