<svg width="41" height="41" viewBox="0 0 41 41" fill="none" xmlns="http://www.w3.org/2000/svg">
<g clip-path="url(#clip0_52_156)">
<path d="M37.965 0H3.02695C1.35332 0 0 1.32129 0 2.95488V38.0371C0 39.6707 1.35332 41 3.02695 41H37.965C39.6387 41 41 39.6707 41 38.0451V2.95488C41 1.32129 39.6387 0 37.965 0ZM12.1639 34.9381H6.07793V15.367H12.1639V34.9381ZM9.1209 12.7004C7.16699 12.7004 5.58945 11.1229 5.58945 9.17695C5.58945 7.23105 7.16699 5.65352 9.1209 5.65352C11.0668 5.65352 12.6443 7.23105 12.6443 9.17695C12.6443 11.1148 11.0668 12.7004 9.1209 12.7004ZM34.9381 34.9381H28.8602V25.4248C28.8602 23.1586 28.8201 20.2357 25.6971 20.2357C22.534 20.2357 22.0535 22.7102 22.0535 25.2646V34.9381H15.9836V15.367H21.8133V18.0416H21.8934C22.7021 16.5041 24.6881 14.8785 27.643 14.8785C33.801 14.8785 34.9381 18.9305 34.9381 24.1996V34.9381V34.9381Z" fill="#FFFAF3"/>
</g>
<defs>
<clipPath id="clip0_52_156">
<rect width="41" height="41" fill="white"/>
</clipPath>
</defs>
</svg>
