<svg width="41" height="42" viewBox="0 0 41 42" fill="none" xmlns="http://www.w3.org/2000/svg">
<path d="M0 42L2.88195 31.2147C1.10358 28.0577 0.169125 24.479 0.170833 20.8092C0.175958 9.33625 9.2899 0 20.488 0C25.9222 0.00175 31.0233 2.17 34.8602 6.104C38.6954 10.038 40.8069 15.267 40.8052 20.8285C40.8 32.3033 31.6861 41.6395 20.488 41.6395C17.0884 41.6378 13.7384 40.7645 10.771 39.1055L0 42ZM11.2698 35.3378C14.133 37.079 16.8663 38.122 20.4812 38.1237C29.7881 38.1237 37.3697 30.3642 37.3748 20.825C37.3782 11.2665 29.8326 3.5175 20.4948 3.514C11.181 3.514 3.60458 11.2735 3.60116 20.811C3.59945 24.7048 4.71328 27.6202 6.5839 30.6705L4.87728 37.0545L11.2698 35.3378ZM30.7226 25.7758C30.5962 25.5588 30.2579 25.4292 29.7489 25.1685C29.2415 24.9077 26.7456 23.6495 26.2792 23.4762C25.8146 23.303 25.4763 23.2155 25.1364 23.737C24.7981 24.2568 23.8244 25.4293 23.5288 25.7758C23.2333 26.1223 22.936 26.166 22.4287 25.9053C21.9213 25.6445 20.2847 25.0968 18.3457 23.324C16.8373 21.945 15.8174 20.2423 15.5219 19.7208C15.2263 19.201 15.4911 18.9193 15.744 18.6603C15.9729 18.4275 16.2513 18.053 16.5059 17.7485C16.7638 17.4475 16.8475 17.2305 17.0184 16.8823C17.1875 16.5358 17.1038 16.2313 16.9757 15.9705C16.8475 15.7115 15.8328 13.1513 15.4108 12.11C14.9974 11.0968 14.5789 11.2332 14.268 11.2175L13.2942 11.2C12.956 11.2 12.4059 11.3295 11.9412 11.851C11.4766 12.3725 10.1646 13.629 10.1646 16.1893C10.1646 18.7495 11.9839 21.2222 12.2368 21.5687C12.4913 21.9152 15.8157 27.1688 20.9082 29.421C22.1194 29.9565 23.0659 30.2767 23.8022 30.5165C25.0185 30.912 26.1255 30.856 27.0001 30.723C27.9756 30.5742 30.0034 29.4647 30.4271 28.2502C30.8507 27.034 30.8507 25.9928 30.7226 25.7758Z" fill="#FFFAF3"/>
</svg>
